<?xml version="1.0" standalone="no"?>
<!DOCTYPE svg PUBLIC "-//W3C//DTD SVG 20010904//EN"
 "http://www.w3.org/TR/2001/REC-SVG-20010904/DTD/svg10.dtd">
<svg version="1.0" xmlns="http://www.w3.org/2000/svg"
 width="375.000000pt" height="375.000000pt" viewBox="0 0 375.000000 375.000000"
 preserveAspectRatio="xMidYMid meet">
<metadata>
Created by potrace 1.11, written by Peter Selinger 2001-2013
</metadata>
<g transform="translate(0.000000,375.000000) scale(0.100000,-0.100000)"
fill="#000000" stroke="none">
<path d="M1086 3735 c-57 -20 -108 -65 -136 -121 -25 -50 -28 -60 -36 -99 -2
-11 -14 -56 -26 -99 l-23 -79 -60 -17 c-63 -17 -108 -41 -139 -75 -81 -88 -96
-139 -96 -328 l0 -139 29 -29 c22 -21 39 -29 65 -29 32 0 36 -3 37 -27 0 -16
2 -37 4 -48 2 -11 6 -63 9 -115 3 -52 9 -126 12 -165 12 -147 12 -149 -8 -172
-12 -12 -20 -37 -21 -60 -1 -38 12 -276 18 -343 4 -44 14 -188 20 -300 3 -47
7 -110 9 -140 3 -30 8 -104 12 -165 3 -60 8 -135 9 -165 2 -30 7 -102 10 -159
7 -110 22 -155 55 -166 16 -5 20 -15 21 -48 0 -23 2 -49 4 -57 1 -8 6 -58 9
-110 9 -112 34 -194 83 -267 68 -102 184 -180 303 -201 33 -6 289 -9 650 -8
l595 2 60 23 c167 66 284 206 308 371 6 37 19 194 21 247 1 21 10 38 28 52 25
20 47 68 46 101 0 8 2 62 6 120 4 58 9 137 11 175 2 39 7 104 9 145 3 41 8
116 11 165 3 50 8 113 10 140 2 28 7 104 10 170 4 66 8 136 10 155 2 19 7 94
10 165 7 124 6 131 -15 157 -23 29 -23 33 -5 235 6 59 18 237 18 271 1 18 7
22 34 22 42 0 79 23 91 58 16 48 8 291 -12 350 -32 94 -136 182 -235 198 -37
6 -42 10 -50 43 -5 20 -12 50 -17 66 -4 17 -8 37 -10 45 -14 72 -52 157 -84
190 -79 81 -13 75 -865 77 -626 2 -767 0 -799 -12z"/>
</g>
</svg>
